<?xml version="1.0" encoding="UTF-8"?>
<svg fill="none" viewBox="0 0 28 28" xmlns="http://www.w3.org/2000/svg">
<g clip-path="url(#a)" fill="#14A5DA">
<path d="m19.825 1h-11.65c-1.9023 0.00223-3.726 0.75889-5.0711 2.104-1.3451 1.3451-2.1018 3.1688-2.104 5.0711v11.65c0.00223 1.9022 0.75889 3.726 2.104 5.0711 1.3451 1.3451 3.1688 2.1018 5.0711 2.104h11.65c1.9022-0.0022 3.726-0.7589 5.0711-2.104s2.1018-3.1689 2.104-5.0711v-11.65c-0.0022-1.9023-0.7589-3.726-2.104-5.0711-1.3451-1.3451-3.1689-2.1018-5.0711-2.104zm4.8764 18.825c0 1.2933-0.5137 2.5336-1.4283 3.4481-0.9145 0.9146-2.1548 1.4283-3.4481 1.4283h-11.65c-1.2919-0.0022-2.53-0.5169-3.4428-1.4312s-1.4253-2.1534-1.4253-3.4452v-11.65c-1e-5 -1.2919 0.51261-2.5309 1.4253-3.4452 0.9127-0.91427 2.1509-1.429 3.4428-1.4312h11.65c1.2933 0 2.5336 0.51377 3.4481 1.4283 0.9146 0.91452 1.4283 2.1549 1.4283 3.4482v11.65z"/>
<path d="m14 7.3007c-1.3249 0-2.6202 0.3929-3.7219 1.129-1.1016 0.73612-1.9603 1.7824-2.4674 3.0065-0.50705 1.2242-0.63971 2.5712-0.38122 3.8707s0.89654 2.4932 1.8334 3.4301c0.93695 0.9369 2.1306 1.575 3.4302 1.8335s2.6465 0.1258 3.8706-0.3813c1.2242-0.507 2.2705-1.3657 3.0066-2.4674s1.129-2.3969 1.129-3.7219c-0.0022-1.7761-0.7087-3.4787-1.9646-4.7346-1.2559-1.2559-2.9586-1.9624-4.7347-1.9646zm0 11.098c-0.8686 0-1.7178-0.2576-2.4401-0.7402s-1.2853-1.1686-1.6177-1.9711c-0.33243-0.8026-0.41941-1.6857-0.24993-2.5377 0.16947-0.852 0.58774-1.6346 1.202-2.2489s1.3969-1.0326 2.2489-1.202c0.852-0.16948 1.7351-0.0825 2.5377 0.24993 0.8025 0.33241 1.4885 0.89541 1.9711 1.6177s0.7402 1.5715 0.7402 2.4401c-0.0031 1.1634-0.467 2.278-1.2903 3.1-0.8232 0.8219-1.9385 1.2842-3.1019 1.2855v0.0067z"/>
<path d="m20.98 5.3451c-0.3908 6.7e-4 -0.7694 0.13682-1.0712 0.38527s-0.5081 0.59383-0.5838 0.97732c-0.0757 0.38348-0.0162 0.78136 0.1685 1.1259 0.1847 0.3445 0.4831 0.61432 0.8444 0.76351s0.7632 0.16852 1.1371 0.05469c0.374-0.11382 0.6969-0.35376 0.9138-0.67895s0.3144-0.71552 0.2758-1.1045c-0.0385-0.38898-0.2108-0.75257-0.4873-1.0288-0.3181-0.31649-0.7485-0.49422-1.1973-0.49438z"/>
</g>
<defs>
<clipPath id="a">
<rect transform="translate(1 1)" width="26" height="26" fill="#fff"/>
</clipPath>
</defs>
</svg>
