<svg width="28" height="28" viewBox="0 0 28 28" fill="none" xmlns="http://www.w3.org/2000/svg">
<g clip-path="url(#clip0)">
<path d="M14.0903 1C12.8047 1 11.548 1.38122 10.4791 2.09545C9.41021 2.80968 8.5771 3.82484 8.08513 5.01256C7.59316 6.20028 7.46442 7.50721 7.71523 8.76809C7.96603 10.029 8.58511 11.1872 9.49415 12.0962C10.4032 13.0052 11.5614 13.6243 12.8222 13.8751C14.0831 14.1259 15.3901 13.9972 16.5778 13.5052C17.7655 13.0132 18.7807 12.1801 19.4949 11.1112C20.2091 10.0423 20.5903 8.78558 20.5903 7.5C20.5903 5.77609 19.9055 4.12279 18.6865 2.90381C17.4675 1.68482 15.8142 1 14.0903 1ZM14.0903 10.75C13.4475 10.75 12.8192 10.5594 12.2847 10.2023C11.7503 9.84516 11.3337 9.33758 11.0877 8.74372C10.8417 8.14986 10.7774 7.49639 10.9028 6.86596C11.0282 6.23552 11.3377 5.65642 11.7922 5.2019C12.2468 4.74738 12.8259 4.43785 13.4563 4.31245C14.0867 4.18705 14.7402 4.25141 15.3341 4.49739C15.9279 4.74338 16.4355 5.15994 16.7926 5.6944C17.1497 6.22886 17.3403 6.85721 17.3403 7.5C17.3395 8.36168 16.9968 9.18782 16.3875 9.79712C15.7782 10.4064 14.952 10.7491 14.0903 10.75V10.75Z" fill="#14A5DA"/>
<path d="M22.7133 13.8201C22.5625 13.669 22.3834 13.5491 22.1862 13.4673C21.989 13.3855 21.7776 13.3434 21.5641 13.3434C21.3506 13.3434 21.1392 13.3855 20.942 13.4673C20.7448 13.5491 20.5657 13.669 20.4149 13.8201C18.7372 15.4933 16.4644 16.4329 14.0949 16.4329C11.7255 16.4329 9.45267 15.4933 7.77493 13.8201C7.46993 13.5154 7.05635 13.3442 6.62518 13.3444C6.194 13.3445 5.78053 13.516 5.47576 13.821C5.17098 14.126 4.99984 14.5396 5 14.9707C5.00016 15.4019 5.1716 15.8153 5.4766 16.1201C7.42111 18.0653 9.96972 19.2908 12.7033 19.5951L8.06993 24.2285C7.76515 24.5332 7.59393 24.9466 7.59393 25.3776C7.59393 25.8087 7.76515 26.222 8.06993 26.5268C8.37471 26.8316 8.78807 27.0028 9.21909 27.0028C9.65011 27.0028 10.0635 26.8316 10.3683 26.5268L14.0949 22.8001L17.8216 26.5268C18.1264 26.8316 18.5397 27.0028 18.9708 27.0028C19.4018 27.0028 19.8152 26.8316 20.1199 26.5268C20.4247 26.222 20.5959 25.8087 20.5959 25.3776C20.5959 24.9466 20.4247 24.5332 20.1199 24.2285L15.4866 19.5951C18.2201 19.2908 20.7688 18.0653 22.7133 16.1201C23.0182 15.8151 23.1895 15.4014 23.1895 14.9701C23.1895 14.5388 23.0182 14.1252 22.7133 13.8201V13.8201Z" fill="#14A5DA"/>
</g>
<defs>
<clipPath id="clip0">
<rect width="18.1883" height="26" fill="white" transform="translate(5 1)"/>
</clipPath>
</defs>
</svg>
